# xmcd
#
# Track frame offsets:
#	180
#	8497
#	28099
#	48654
#	66467
#	84147
#	102359
#	118639
#	133969
#	158553
#	176199
#	194881
#
# Disc length: 2823 seconds
#
# Revision: 3
# Processed by: cddbd v1.5.2PL0 Copyright (c) Steve Scherf et al.
# Submitted via: EasyCDDAExtractor 2010.6.0.0
#
DISCID=a70b050c
DTITLE=유승준 - 1Ay "WEST SIDE"
DYEAR=1997
DGENRE=Dance
TTITLE0=Intro
TTITLE1=마지막여행
TTITLE2=WEST SIDE
TTITLE3=가위
TTITLE4=혼자 남은 나
TTITLE5=사랑해 누나
TTITLE6=침흘리는 여자
TTITLE7=HUNTER
TTITLE8=공전 그리고 일식
TTITLE9=Aha
TTITLE10=사랑해 누나 (Remix Version)
TTITLE11=침흘리는 여자 (Remix Version)
EXTD=
EXTT0=
EXTT1=
EXTT2=
EXTT3=
EXTT4=
EXTT5=
EXTT6=
EXTT7=
EXTT8=
EXTT9=
EXTT10=
EXTT11=
PLAYORDER=
